<svg xmlns="http://www.w3.org/2000/svg" width="40" height="40" fill="none" viewBox="0 0 40 40">
    <circle cx="20" cy="20" r="19.5" fill="#fff" stroke="#000"/>
    <g clip-path="url(#a)">
        <path fill="#000" d="M28.82 15.102a.683.683 0 0 0-.558-.29h-14.59l-1.105-3.81c-.433-1.499-1.462-1.66-1.885-1.66H7.738a.682.682 0 1 0 0 1.364h2.944c.093 0 .378 0 .572.67l3.799 13.964a.682.682 0 0 0 .657.498h9.28a.68.68 0 0 0 .643-.452l3.271-9.66a.683.683 0 0 0-.083-.624Zm-4.31 9.37h-8.282l-2.173-8.295h13.237l-2.782 8.296Zm-1.354 2.75a1.718 1.718 0 1 0 0 3.437 1.718 1.718 0 0 0 0-3.437Zm-6.187 0a1.718 1.718 0 1 0 0 3.437 1.718 1.718 0 0 0 0-3.437Z"/>
    </g>
    <defs>
        <clipPath id="a">
            <path fill="#fff" d="M0 0h22v22H0z" transform="translate(7 9)"/>
        </clipPath>
    </defs>
</svg>